# xmcd CD database file
#
# Track frame offsets:
#	150
#	19837
#	36670
#	58137
#	74520
#	90397
#	109145
#	125915
#	143597
#	156695
#	174532
#	190917
#	207407
#	226227
#	241667
#	258490
#	275852
#
# Disc length: 3866 seconds
#
# Revision: 2
# Processed by: cddbd v1.5.2PL0 Copyright (c) Steve Scherf et al.
# Submitted via: CDex 1.70beta2
#
DISCID=080f1811
DTITLE=Miguel Bosé - El Disco De Oro de Miguel Bose
DYEAR=1991
DGENRE=Pop
TTITLE0=Amante Bandido
TTITLE1=La Chula
TTITLE2=Amiga
TTITLE3=Linda
TTITLE4=Te Amare
TTITLE5=Morir De Amor
TTITLE6=Don Diablo
TTITLE7=Marchate Ya
TTITLE8=Te Dire
TTITLE9=Creo En Ti
TTITLE10=Deja Que
TTITLE11=Super Superman
TTITLE12=Horizonte De Las Estrellas
TTITLE13=23 Horas Al Dia
TTITLE14=Mas Alla
TTITLE15=Mi Libertad
TTITLE16=Voy A Ganar
EXTD=YEAR: 1991
EXTT0=
EXTT1=
EXTT2=
EXTT3=
EXTT4=
EXTT5=
EXTT6=
EXTT7=
EXTT8=
EXTT9=
EXTT10=
EXTT11=
EXTT12=
EXTT13=
EXTT14=
EXTT15=
EXTT16=
PLAYORDER=
